<svg width="224" height="201" viewBox="0 0 224 201" fill="none" xmlns="http://www.w3.org/2000/svg">
<path fill-rule="evenodd" clip-rule="evenodd" d="M20.3265 99.7706C14.0805 105.922 14.0033 115.971 20.1542 122.217C26.3051 128.463 36.3548 128.541 42.6009 122.39L62.5568 102.738L35.4557 133.274C30.421 138.947 30.6441 147.551 35.9661 152.956C41.5517 158.628 50.6779 158.698 56.3499 153.112L74.9869 134.759L53.127 160.091C48.4489 165.512 48.7155 173.616 53.7397 178.718C59.067 184.128 67.7711 184.195 73.1808 178.867L84.6579 167.565C83.9432 172.824 85.5851 178.345 89.5967 182.418C96.4731 189.401 107.708 189.487 114.691 182.611L137.255 160.39L130.546 170.491C127.397 175.231 128.002 181.53 131.995 185.585C136.656 190.317 144.271 190.376 149.004 185.715L195.621 139.808C200.278 135.222 200.335 127.73 195.75 123.073C191.711 118.972 185.306 118.372 180.576 121.652L167.119 130.982L187.98 110.438C194.963 103.562 195.049 92.3269 188.173 85.3441C184.161 81.2704 178.666 79.5439 173.397 80.1778L185.655 68.1071C191.071 62.7738 191.138 54.0599 185.804 48.644C180.783 43.5451 172.692 43.1451 167.192 47.7238L142.458 68.3158L167.881 43.2798C173.555 37.6922 173.626 28.5628 168.038 22.8887C162.717 17.4854 154.12 17.1272 148.368 22.0691L117.839 48.2979L122.135 44.0669C128.381 37.916 128.459 27.8663 122.308 21.6203C116.157 15.3742 106.107 15.297 99.861 21.4479L62.5358 58.2044L68.9221 50.0158C73.4593 44.1981 72.9812 35.9184 67.8045 30.6616C62.1081 24.8772 52.8011 24.8057 47.0166 30.5021L11.8021 65.1801C6.06167 70.833 5.99077 80.0691 11.6437 85.8095C16.844 91.0903 25.1777 91.6323 31.0182 87.0696L41.6908 78.7319L20.3265 99.7706Z" fill="#E6E6E6"/>
<circle cx="170.029" cy="180.094" r="3.52391" fill="#789DEC"/>
<circle cx="155.938" cy="7.24934" r="5.22395" fill="#498ACD"/>
<circle cx="156.364" cy="6.7" r="3.7" fill="white"/>
<circle cx="40.9234" cy="102.938" r="6.18948" fill="#498ACD"/>
<path d="M92.6739 154.959C91.8773 158.443 96.2295 166.872 102.833 165.421" stroke="#1064B9" stroke-width="3" stroke-linecap="round"/>
<path d="M218.113 137.102C218.592 137.842 219.458 138.403 220.226 138.79C219.385 138.809 218.387 138.952 217.631 139.437C216.775 139.986 216.015 141.115 215.481 142.059C215.37 142.256 215.268 142.447 215.174 142.626C215.168 142.428 215.156 142.214 215.139 141.993C215.053 140.916 214.815 139.569 214.162 138.702C213.691 138.078 212.91 137.582 212.185 137.221C212.995 137.21 213.915 137.078 214.608 136.624C215.025 136.351 215.418 135.922 215.769 135.453C216.123 134.981 216.447 134.45 216.72 133.955C216.872 133.68 217.009 133.415 217.128 133.175C217.149 133.414 217.175 133.677 217.21 133.952C217.278 134.488 217.376 135.075 217.518 135.625C217.66 136.17 217.851 136.698 218.113 137.102Z" stroke="#1064B9" stroke-width="0.585896"/>
<path d="M13.817 151.57C14.2964 152.31 15.1623 152.872 15.9308 153.259C15.0891 153.278 14.0918 153.421 13.3355 153.906C12.4796 154.455 11.7193 155.584 11.1858 156.527C11.0746 156.724 10.9718 156.916 10.8788 157.095C10.8719 156.896 10.8606 156.683 10.843 156.462C10.7574 155.385 10.5197 154.038 9.86655 153.171C9.39563 152.546 8.61455 152.051 7.88934 151.69C8.69886 151.679 9.61982 151.547 10.3123 151.093C10.7293 150.819 11.1228 150.391 11.4738 149.922C11.8275 149.449 12.151 148.919 12.4243 148.424C12.5764 148.149 12.7136 147.883 12.8326 147.644C12.8531 147.882 12.8798 148.146 12.9145 148.421C12.9819 148.957 13.0799 149.544 13.2227 150.093C13.3646 150.639 13.5554 151.166 13.817 151.57Z" stroke="#1064B9" stroke-width="0.585896"/>
<path d="M53.8461 6.85736C54.3255 7.59746 55.1914 8.15891 55.9599 8.54623C55.1182 8.56527 54.1209 8.70781 53.3645 9.19302C52.5086 9.74211 51.7483 10.8709 51.2149 11.8146C51.1036 12.0114 51.0009 12.2026 50.9079 12.3823C50.901 12.1834 50.8896 11.9703 50.872 11.7489C50.7865 10.6718 50.5488 9.32465 49.8956 8.45812C49.4247 7.8334 48.6436 7.33816 47.9184 6.97688C48.7279 6.96622 49.6489 6.83379 50.3413 6.37989C50.7584 6.10651 51.1518 5.67774 51.5029 5.20882C51.8565 4.73642 52.1801 4.20562 52.4533 3.71113C52.6054 3.43583 52.7427 3.1704 52.8616 2.93065C52.8822 3.16954 52.9089 3.43267 52.9436 3.70823C53.0109 4.24387 53.1089 4.83107 53.2518 5.38055C53.3937 5.92625 53.5845 6.45355 53.8461 6.85736Z" stroke="#1064B9" stroke-width="0.585896"/>
<path d="M9.21887 43.7246C9.69829 44.4646 10.5642 45.0261 11.3327 45.4134C10.491 45.4325 9.49366 45.575 8.73732 46.0602C7.88143 46.6093 7.12113 47.7381 6.58767 48.6818C6.47644 48.8786 6.3737 49.0698 6.28066 49.2495C6.27376 49.0505 6.26241 48.8375 6.24482 48.616C6.15927 47.539 5.9216 46.1918 5.2684 45.3253C4.79748 44.7006 4.01641 44.2053 3.2912 43.8441C4.10071 43.8334 5.02167 43.701 5.71411 43.2471C6.13117 42.9737 6.52461 42.5449 6.87567 42.076C7.22933 41.6036 7.55289 41.0728 7.82612 40.5783C7.97823 40.303 8.1155 40.0376 8.23442 39.7978C8.25498 40.0367 8.2817 40.2999 8.31636 40.5754C8.38375 41.1111 8.48174 41.6983 8.6246 42.2477C8.76648 42.7934 8.95728 43.3207 9.21887 43.7246Z" stroke="#1064B9" stroke-width="0.585896"/>
<path d="M117.207 192.394C117.687 193.135 118.552 193.696 119.321 194.083C118.479 194.102 117.482 194.245 116.726 194.73C115.87 195.279 115.109 196.408 114.576 197.352C114.465 197.548 114.362 197.74 114.269 197.919C114.262 197.72 114.251 197.507 114.233 197.286C114.148 196.209 113.91 194.862 113.257 193.995C112.786 193.371 112.005 192.875 111.279 192.514C112.089 192.503 113.01 192.371 113.702 191.917C114.119 191.644 114.513 191.215 114.864 190.746C115.218 190.274 115.541 189.743 115.814 189.248C115.967 188.973 116.104 188.708 116.223 188.468C116.243 188.707 116.27 188.97 116.305 189.245C116.372 189.781 116.47 190.368 116.613 190.918C116.755 191.463 116.946 191.991 117.207 192.394Z" stroke="#1064B9" stroke-width="0.585896"/>
<circle cx="163.933" cy="63.013" r="2.1558" stroke="#498ACD" stroke-width="0.831544"/>
<circle cx="37.3055" cy="65.5833" r="2.1558" stroke="#498ACD" stroke-width="0.831544"/>
<path d="M70.9473 72.7277L59.5196 79.9452C59.1525 80.177 58.975 80.6151 59.0888 81.0341C63.9641 98.9788 79.5998 120.2 87.4651 129.354C87.8083 129.753 88.4165 129.793 88.8397 129.479C114.899 110.162 128.068 131.815 131.642 145.867C131.757 146.317 132.157 146.63 132.622 146.63H187.18C187.733 146.63 188.18 146.182 188.18 145.63V59.014C188.18 58.2124 187.284 57.7366 186.62 58.1856L119.13 103.822C118.792 104.051 118.348 104.051 118.01 103.822L72.0413 72.7447C71.7124 72.5223 71.283 72.5156 70.9473 72.7277Z" fill="#1064B9"/>
<path d="M76.7209 53.2568C78.3854 57.8996 77.8124 62.1193 77.098 64.3086C76.9482 64.7678 77.0933 65.284 77.4923 65.5562L118.007 93.209C118.346 93.4408 118.793 93.4411 119.133 93.2096L178.174 53.0114C178.991 52.4556 178.593 51.1786 177.605 51.1848L77.6828 51.8173C76.9583 51.8218 76.4764 52.5748 76.7209 53.2568Z" fill="#1064B9"/>
<path d="M70.9473 72.7277L59.5196 79.9452C59.1525 80.177 58.975 80.6151 59.0888 81.0341C63.9641 98.9788 79.5998 120.2 87.4651 129.354C87.8083 129.753 88.4165 129.793 88.8397 129.479C114.899 110.162 128.068 131.815 131.642 145.867C131.757 146.317 132.157 146.63 132.622 146.63H187.18C187.733 146.63 188.18 146.182 188.18 145.63V59.014C188.18 58.2124 187.284 57.7366 186.62 58.1856L119.13 103.822C118.792 104.051 118.348 104.051 118.01 103.822L72.0413 72.7447C71.7124 72.5223 71.283 72.5156 70.9473 72.7277Z" stroke="black" stroke-width="2" stroke-linecap="round"/>
<path d="M76.7209 53.2568C78.3854 57.8996 77.8124 62.1193 77.098 64.3086C76.9482 64.7678 77.0933 65.284 77.4923 65.5562L118.007 93.209C118.346 93.4408 118.793 93.4411 119.133 93.2096L178.174 53.0114C178.991 52.4556 178.593 51.1786 177.605 51.1848L77.6828 51.8173C76.9583 51.8218 76.4764 52.5748 76.7209 53.2568Z" stroke="black" stroke-width="2" stroke-linecap="round"/>
<path d="M125.862 173.81L100.203 186.64C98.824 187.329 97.1907 187.344 95.8131 186.653C26.5276 151.895 5.99024 60.1617 14.0453 44.6044C14.3177 44.0783 14.7349 43.6983 15.222 43.3611L39.831 26.3245C40.1696 26.0901 40.5382 25.8937 40.9285 25.7625C48.6395 23.1702 52.7768 27.7727 54.0867 30.8273C54.2134 31.1229 54.3456 31.4144 54.5097 31.6909L66.8591 52.4898C71.102 60.4453 66.8591 65.528 64.2073 67.0749L51.9488 74.5365C50.1538 75.6291 49.2179 77.7287 49.7296 79.7668C55.6105 103.186 73.5339 127.337 84.1196 139.148C85.6445 140.85 88.1394 141.202 90.1285 140.078L101.996 133.37C109.421 130.187 114.371 134.695 115.918 137.347L127.188 156.573C133.552 166.65 128.956 172.263 125.862 173.81Z" fill="#1064B9" stroke="black" stroke-width="2" stroke-linecap="round"/>
<path d="M182.113 87.3184V137.703" stroke="#789DEC" stroke-width="4" stroke-linecap="round"/>
<path d="M174.82 140.354H156.257" stroke="#789DEC" stroke-width="4" stroke-linecap="round"/>
<path d="M150.291 140.354H148.302" stroke="#789DEC" stroke-width="4" stroke-linecap="round"/>
<path d="M41.566 123.117C47.9746 135.492 66.891 163.558 91.2878 176.817" stroke="#789DEC" stroke-width="4" stroke-linecap="round"/>
<path d="M97.9174 177.481C103.221 175.713 115.022 171.381 119.795 168.199" stroke="#789DEC" stroke-width="4" stroke-linecap="round"/>
</svg>
