<svg width="147" height="43" viewBox="0 0 147 43" fill="none" xmlns="http://www.w3.org/2000/svg">
<path d="M85.3562 17.7035H86.0453V21.9365H73.8629V21.2474L75.2165 21.0752C75.479 21.0423 75.6349 20.9767 75.6841 20.8783C75.7333 20.7634 75.7579 20.4271 75.7579 19.8692V7.26848C75.7579 6.71064 75.7333 6.38249 75.6841 6.28405C75.6349 6.1692 75.479 6.09537 75.2165 6.06255L73.8629 5.89028V5.20117H85.7992V9.43423H85.1101L84.3225 6.70243C84.2733 6.50555 84.2159 6.36608 84.1502 6.28405C84.101 6.1856 83.9944 6.12818 83.8303 6.11177C83.6662 6.07896 83.3873 6.06255 82.9935 6.06255H78.7112V13.052H81.5169C81.9107 13.052 82.1896 13.0438 82.3537 13.0274C82.5177 12.9946 82.6244 12.9372 82.6736 12.8551C82.7392 12.7567 82.7966 12.609 82.8459 12.4121L83.3873 10.4187H84.0764V16.5468H83.3873L82.8459 14.5533C82.7966 14.3564 82.7392 14.2169 82.6736 14.1349C82.6244 14.0365 82.5177 13.979 82.3537 13.9626C82.1896 13.9298 81.9107 13.9134 81.5169 13.9134H78.7112V21.0752H83.2396C83.6334 21.0752 83.9123 21.067 84.0764 21.0505C84.2405 21.0177 84.3471 20.9603 84.3964 20.8783C84.462 20.7798 84.5194 20.6322 84.5686 20.4353L85.3562 17.7035Z" fill="#10457C"/>
<path d="M101.662 17.7035H102.351V21.9365H90.6608V21.2474L92.0144 21.0752C92.2769 21.0423 92.4327 20.9767 92.482 20.8783C92.5312 20.7634 92.5558 20.4271 92.5558 19.8692V7.26848C92.5558 6.71064 92.5312 6.38249 92.482 6.28405C92.4327 6.1692 92.2769 6.09537 92.0144 6.06255L90.6608 5.89028V5.20117H97.4041V5.89028L96.0505 6.06255C95.788 6.09537 95.6322 6.1692 95.5829 6.28405C95.5337 6.38249 95.5091 6.71064 95.5091 7.26848V21.0752H99.5453C99.9391 21.0752 100.218 21.067 100.382 21.0505C100.546 21.0177 100.653 20.9603 100.702 20.8783C100.768 20.7798 100.825 20.6322 100.874 20.4353L101.662 17.7035Z" fill="#10457C"/>
<path d="M105.728 5.89028V5.20117H112.472V5.89028L111.118 6.06255C110.855 6.09537 110.7 6.1692 110.65 6.28405C110.601 6.38249 110.577 6.71064 110.577 7.26848V19.8692C110.577 20.4271 110.601 20.7634 110.65 20.8783C110.7 20.9767 110.855 21.0423 111.118 21.0752L112.472 21.2474V21.9365H105.728V21.2474L107.082 21.0752C107.344 21.0423 107.5 20.9767 107.549 20.8783C107.599 20.7634 107.623 20.4271 107.623 19.8692V7.26848C107.623 6.71064 107.599 6.38249 107.549 6.28405C107.5 6.1692 107.344 6.09537 107.082 6.06255L105.728 5.89028Z" fill="#10457C"/>
<path d="M115.803 5.20117H129.339V9.43423H128.65L127.862 6.70243C127.813 6.48914 127.755 6.34147 127.69 6.25944C127.64 6.16099 127.534 6.10357 127.37 6.08716C127.206 6.07075 126.927 6.06255 126.533 6.06255H124.047V19.8692C124.047 20.4271 124.072 20.7634 124.121 20.8783C124.17 20.9767 124.326 21.0423 124.589 21.0752L125.942 21.2474V21.9365H119.199V21.2474L120.553 21.0752C120.815 21.0423 120.971 20.9767 121.02 20.8783C121.069 20.7634 121.094 20.4271 121.094 19.8692V6.06255H118.608C118.231 6.06255 117.952 6.07075 117.772 6.08716C117.607 6.10357 117.501 6.16099 117.452 6.25944C117.402 6.34147 117.345 6.48914 117.279 6.70243L116.492 9.43423H115.803V5.20117Z" fill="#10457C"/>
<path d="M144.16 17.7035H144.849V21.9365H132.666V21.2474L134.02 21.0752C134.283 21.0423 134.438 20.9767 134.488 20.8783C134.537 20.7634 134.561 20.4271 134.561 19.8692V7.26848C134.561 6.71064 134.537 6.38249 134.488 6.28405C134.438 6.1692 134.283 6.09537 134.02 6.06255L132.666 5.89028V5.20117H144.603V9.43423H143.914L143.126 6.70243C143.077 6.50555 143.019 6.36608 142.954 6.28405C142.905 6.1856 142.798 6.12818 142.634 6.11177C142.47 6.07896 142.191 6.06255 141.797 6.06255H137.515V13.052H140.32C140.714 13.052 140.993 13.0438 141.157 13.0274C141.321 12.9946 141.428 12.9372 141.477 12.8551C141.543 12.7567 141.6 12.609 141.649 12.4121L142.191 10.4187H142.88V16.5468H142.191L141.649 14.5533C141.6 14.3564 141.543 14.2169 141.477 14.1349C141.428 14.0365 141.321 13.979 141.157 13.9626C140.993 13.9298 140.714 13.9134 140.32 13.9134H137.515V21.0752H142.043C142.437 21.0752 142.716 21.067 142.88 21.0505C143.044 21.0177 143.151 20.9603 143.2 20.8783C143.266 20.7798 143.323 20.6322 143.372 20.4353L144.16 17.7035Z" fill="#10457C"/>
<path d="M74.5633 35.8125V30.9649H76.1373C76.4309 30.9649 76.6786 31.017 76.8806 31.1211C77.0826 31.2253 77.2356 31.3712 77.3398 31.559C77.4455 31.7468 77.4984 31.9654 77.4984 32.2147C77.4984 32.4104 77.4668 32.5839 77.4037 32.7354C77.3406 32.8869 77.2522 33.0124 77.1386 33.1118C77.0265 33.2096 76.8948 33.2775 76.7433 33.3153V33.3437C76.9106 33.3564 77.066 33.4147 77.2096 33.5189C77.3532 33.6215 77.4684 33.7611 77.5552 33.9378C77.6435 34.1146 77.6877 34.3205 77.6877 34.5556C77.6877 34.8034 77.6341 35.0219 77.5268 35.2113C77.421 35.3991 77.2625 35.5466 77.051 35.6539C76.8396 35.7596 76.5776 35.8125 76.2652 35.8125H74.5633ZM74.8592 35.5379H76.2652C76.6297 35.5379 76.9098 35.4464 77.1054 35.2634C77.3027 35.0803 77.4013 34.8444 77.4013 34.5556C77.4013 34.3521 77.3532 34.1698 77.2569 34.0089C77.1622 33.8479 77.0305 33.7209 76.8616 33.6278C76.6928 33.5331 76.4971 33.4858 76.2746 33.4858H74.8592V35.5379ZM74.8592 33.2159H76.2391C76.4458 33.2159 76.621 33.1709 76.7646 33.081C76.9098 32.9911 77.0202 32.8703 77.096 32.7188C77.1733 32.5674 77.212 32.3993 77.212 32.2147C77.212 31.9149 77.1189 31.6774 76.9327 31.5022C76.7464 31.3271 76.4813 31.2395 76.1373 31.2395H74.8592V33.2159ZM82.9188 35.8125V30.9649H85.6171V31.2395H83.2147V33.2491H85.4728V33.5236H83.2147V35.5379H85.674V35.8125H82.9188ZM94.6141 30.9649V35.8125H94.3253L91.234 31.5022H91.2056V35.8125H90.9098V30.9649H91.2009L94.2922 35.2799H94.3206V30.9649H94.6141ZM103.771 32.4798H103.468C103.437 32.3157 103.378 32.1571 103.291 32.004C103.204 31.8494 103.092 31.7105 102.955 31.5874C102.819 31.4628 102.661 31.3641 102.481 31.2916C102.301 31.219 102.103 31.1827 101.885 31.1827C101.566 31.1827 101.273 31.2679 101.004 31.4383C100.738 31.6072 100.524 31.8557 100.363 32.1839C100.204 32.5121 100.124 32.9137 100.124 33.3887C100.124 33.8668 100.204 34.27 100.363 34.5982C100.524 34.9265 100.738 35.175 101.004 35.3438C101.273 35.5111 101.566 35.5947 101.885 35.5947C102.103 35.5947 102.301 35.5592 102.481 35.4882C102.661 35.4156 102.819 35.3178 102.955 35.1947C103.092 35.0701 103.204 34.9304 103.291 34.7758C103.378 34.6211 103.437 34.4617 103.468 34.2976H103.771C103.737 34.4933 103.67 34.685 103.57 34.8728C103.472 35.0606 103.343 35.231 103.182 35.3841C103.023 35.5356 102.834 35.6563 102.616 35.7462C102.4 35.8346 102.156 35.8788 101.885 35.8788C101.481 35.8788 101.125 35.7762 100.817 35.5711C100.51 35.3644 100.268 35.074 100.093 34.7C99.9195 34.326 99.8327 33.8889 99.8327 33.3887C99.8327 32.8885 99.9195 32.4514 100.093 32.0774C100.268 31.7034 100.51 31.4139 100.817 31.2087C101.125 31.002 101.481 30.8986 101.885 30.8986C102.156 30.8986 102.4 30.9436 102.616 31.0336C102.834 31.1219 103.023 31.2418 103.182 31.3933C103.343 31.5432 103.472 31.7121 103.57 31.8999C103.67 32.0877 103.737 32.281 103.771 32.4798ZM108.975 35.8125V30.9649H109.271V33.2491H112.191V30.9649H112.487V35.8125H112.191V33.5236H109.271V35.8125H108.975ZM117.633 31.2395V30.9649H121.03V31.2395H119.479V35.8125H119.183V31.2395H117.633ZM129.828 33.3887C129.828 33.8889 129.741 34.326 129.567 34.7C129.394 35.0724 129.152 35.362 128.843 35.5687C128.535 35.7754 128.18 35.8788 127.778 35.8788C127.374 35.8788 127.017 35.7754 126.708 35.5687C126.4 35.3604 126.16 35.0701 125.986 34.6976C125.813 34.3237 125.726 33.8874 125.726 33.3887C125.726 32.8885 125.813 32.4522 125.986 32.0798C126.161 31.7074 126.403 31.4178 126.711 31.2111C127.018 31.0028 127.374 30.8986 127.778 30.8986C128.18 30.8986 128.535 31.002 128.843 31.2087C129.152 31.4154 129.394 31.7058 129.567 32.0798C129.741 32.4522 129.828 32.8885 129.828 33.3887ZM129.539 33.3887C129.539 32.939 129.463 32.5492 129.312 32.2194C129.162 31.8896 128.954 31.6348 128.689 31.4549C128.424 31.2734 128.12 31.1827 127.778 31.1827C127.436 31.1827 127.132 31.2726 126.867 31.4525C126.602 31.6308 126.393 31.8857 126.242 32.217C126.092 32.5468 126.017 32.9374 126.017 33.3887C126.017 33.8353 126.091 34.2243 126.239 34.5556C126.389 34.8854 126.597 35.1411 126.862 35.3225C127.127 35.504 127.432 35.5947 127.778 35.5947C128.12 35.5947 128.424 35.5048 128.689 35.3249C128.954 35.1434 129.162 34.8878 129.312 34.558C129.463 34.2282 129.539 33.8384 129.539 33.3887ZM135.05 35.8125V30.9649H136.544C136.851 30.9649 137.115 31.028 137.334 31.1543C137.555 31.2805 137.725 31.4533 137.843 31.6726C137.961 31.892 138.021 32.1421 138.021 32.423C138.021 32.7007 137.961 32.9492 137.843 33.1686C137.725 33.3879 137.555 33.5615 137.334 33.6893C137.115 33.8156 136.852 33.8787 136.546 33.8787H135.258V33.6041H136.539C136.788 33.6041 137.001 33.5536 137.178 33.4526C137.355 33.35 137.49 33.2104 137.585 33.0337C137.68 32.8553 137.727 32.6518 137.727 32.423C137.727 32.1926 137.68 31.9882 137.585 31.8099C137.49 31.6316 137.354 31.492 137.176 31.391C136.999 31.29 136.786 31.2395 136.536 31.2395H135.346V35.8125H135.05ZM145.836 32.1768C145.811 31.8754 145.688 31.6316 145.467 31.4454C145.248 31.2592 144.964 31.1661 144.615 31.1661C144.38 31.1661 144.171 31.2095 143.988 31.2963C143.805 31.3831 143.661 31.5014 143.557 31.6513C143.453 31.8012 143.401 31.9732 143.401 32.1673C143.401 32.292 143.424 32.4048 143.472 32.5058C143.521 32.6052 143.589 32.6944 143.678 32.7733C143.766 32.8506 143.871 32.9185 143.993 32.9769C144.114 33.0352 144.248 33.0865 144.395 33.1307L144.925 33.2869C145.107 33.3422 145.274 33.4061 145.427 33.4787C145.582 33.5512 145.716 33.638 145.829 33.739C145.944 33.8384 146.034 33.9552 146.097 34.0893C146.161 34.2235 146.194 34.3781 146.194 34.5533C146.194 34.8089 146.128 35.0377 145.995 35.2397C145.864 35.4417 145.677 35.601 145.434 35.7178C145.193 35.833 144.908 35.8906 144.58 35.8906C144.267 35.8906 143.995 35.8377 143.763 35.732C143.533 35.6263 143.35 35.4795 143.216 35.2918C143.082 35.1024 143.006 34.8846 142.989 34.6385H143.292C143.308 34.8389 143.372 35.0125 143.484 35.1592C143.597 35.3044 143.748 35.4164 143.936 35.4953C144.123 35.5742 144.338 35.6137 144.58 35.6137C144.84 35.6137 145.069 35.5695 145.268 35.4811C145.467 35.3912 145.623 35.2665 145.735 35.1071C145.847 34.9478 145.903 34.7623 145.903 34.5509C145.903 34.3805 145.862 34.2345 145.782 34.113C145.701 33.9915 145.582 33.8866 145.425 33.7982C145.268 33.7098 145.074 33.6309 144.842 33.5615L144.277 33.3911C143.898 33.2759 143.608 33.1189 143.408 32.92C143.209 32.7212 143.11 32.4735 143.11 32.1768C143.11 31.9275 143.176 31.7066 143.308 31.5141C143.441 31.32 143.621 31.1677 143.848 31.0572C144.077 30.9468 144.335 30.8915 144.622 30.8915C144.911 30.8915 145.166 30.9476 145.387 31.0596C145.608 31.1701 145.783 31.3223 145.912 31.5164C146.042 31.7089 146.113 31.9291 146.128 32.1768H145.836Z" fill="#10457C"/>
<line x1="73.8627" y1="26.6081" x2="145.644" y2="26.6082" stroke="#10457C" stroke-width="0.256363"/>
<path d="M67.4476 20.8065L68.1412 0L68.8347 20.8065L68.1412 43L67.4476 20.8065Z" fill="#1F5A95"/>
<path d="M0.0893555 1.13086H17.9445L23.3011 12.0225H9.73115V17.022H25.7479L30.2646 26.3067H9.73115V31.8418H32.9429L38.3887 42.912H0.0893555V1.13086Z" fill="#10457C"/>
<path d="M41.6919 42.912L36.2461 31.8418H49.6375C53.4763 29.6991 51.6908 26.5745 49.6375 26.3067H33.5678L29.0147 17.022H49.5482C53.7442 15.5043 51.6015 11.9332 49.5482 12.0225H26.6043L21.337 1.13086L52.2265 1.22014C66.6892 1.66651 65.35 17.8255 57.0474 21.2179C68.6532 28.0922 61.5112 42.912 53.2978 42.912H41.6919Z" fill="#10457C"/>
<path d="M19.73 4.61205C6.65998 9.46866 0.833242 27.0501 0 35.1444V1.04102H17.9975L19.73 4.61205Z" fill="url(#paint0_linear_179_371)"/>
<path d="M52.2262 15.4144C56.5114 4.77275 42.2571 1.39812 34.0139 1.04102H52.494C64.457 2.11233 64.5463 12.4683 61.7787 16.8428L52.2262 15.4144Z" fill="url(#paint1_linear_179_371)"/>
<path d="M51.7798 28.0904C53.851 32.2328 45.8876 39.7261 41.6917 42.9995H53.4761C61.868 42.4638 66.9567 30.0545 59.9039 23.2695L51.7798 28.0904Z" fill="url(#paint2_linear_179_371)"/>
<defs>
<linearGradient id="paint0_linear_179_371" x1="9.68643" y1="1.04101" x2="0.0892771" y2="33.8053" gradientUnits="userSpaceOnUse">
<stop stop-color="#10457C"/>
<stop offset="1" stop-color="#3C80C3"/>
</linearGradient>
<linearGradient id="paint1_linear_179_371" x1="36.0673" y1="1.13029" x2="55.6187" y2="15.4144" gradientUnits="userSpaceOnUse">
<stop stop-color="#3C80C3"/>
<stop offset="1" stop-color="#10457C"/>
</linearGradient>
<linearGradient id="paint2_linear_179_371" x1="54.9938" y1="26.7513" x2="35.4423" y2="57.2836" gradientUnits="userSpaceOnUse">
<stop stop-color="#10457C"/>
<stop offset="1" stop-color="#3C80C3"/>
</linearGradient>
</defs>
</svg>
