<svg width="224" height="201" viewBox="0 0 224 201" fill="none" xmlns="http://www.w3.org/2000/svg">
<path fill-rule="evenodd" clip-rule="evenodd" d="M20.3265 99.7706C14.0805 105.922 14.0033 115.971 20.1542 122.217C26.3051 128.463 36.3548 128.541 42.6009 122.39L62.5568 102.738L35.4557 133.274C30.421 138.947 30.6441 147.551 35.9661 152.956C41.5517 158.628 50.6779 158.698 56.3499 153.112L74.9869 134.759L53.127 160.091C48.4489 165.512 48.7155 173.616 53.7397 178.718C59.067 184.128 67.7711 184.195 73.1808 178.867L84.6579 167.565C83.9432 172.824 85.5851 178.345 89.5967 182.418C96.4731 189.401 107.708 189.487 114.691 182.611L137.255 160.39L130.546 170.491C127.397 175.231 128.002 181.53 131.995 185.585C136.656 190.317 144.271 190.376 149.004 185.715L195.621 139.808C200.278 135.222 200.335 127.73 195.75 123.073C191.711 118.972 185.306 118.372 180.576 121.652L167.119 130.982L187.98 110.438C194.963 103.562 195.049 92.3269 188.173 85.3441C184.161 81.2704 178.666 79.5439 173.397 80.1778L185.655 68.1071C191.071 62.7738 191.138 54.0599 185.804 48.644C180.783 43.5451 172.692 43.1451 167.192 47.7238L142.458 68.3158L167.881 43.2798C173.555 37.6922 173.626 28.5628 168.038 22.8887C162.717 17.4854 154.12 17.1272 148.368 22.0691L117.839 48.2979L122.135 44.0669C128.381 37.916 128.459 27.8663 122.308 21.6203C116.157 15.3742 106.107 15.297 99.861 21.4479L62.5358 58.2044L68.9221 50.0158C73.4593 44.1981 72.9812 35.9184 67.8045 30.6616C62.1081 24.8772 52.8011 24.8057 47.0166 30.5021L11.8021 65.1801C6.06167 70.833 5.99077 80.0691 11.6437 85.8095C16.844 91.0903 25.1777 91.6323 31.0182 87.0696L41.6908 78.7319L20.3265 99.7706Z" fill="#E6E6E6"/>
<circle cx="170.029" cy="180.094" r="3.52391" fill="#789DEC"/>
<circle cx="155.938" cy="7.24934" r="5.22395" fill="#3C80C3"/>
<circle cx="156.364" cy="6.7" r="3.7" fill="white"/>
<circle cx="40.9234" cy="102.938" r="6.18948" fill="#3C80C3"/>
<path d="M92.6739 154.959C91.8773 158.443 96.2295 166.872 102.833 165.421" stroke="#1064B9" stroke-width="3" stroke-linecap="round"/>
<path d="M218.113 137.102C218.592 137.842 219.458 138.403 220.226 138.79C219.385 138.809 218.387 138.952 217.631 139.437C216.775 139.986 216.015 141.115 215.481 142.059C215.37 142.256 215.268 142.447 215.174 142.626C215.168 142.428 215.156 142.214 215.139 141.993C215.053 140.916 214.815 139.569 214.162 138.702C213.691 138.078 212.91 137.582 212.185 137.221C212.995 137.21 213.915 137.078 214.608 136.624C215.025 136.351 215.418 135.922 215.769 135.453C216.123 134.981 216.447 134.45 216.72 133.955C216.872 133.68 217.009 133.415 217.128 133.175C217.149 133.414 217.175 133.677 217.21 133.952C217.278 134.488 217.376 135.075 217.518 135.625C217.66 136.17 217.851 136.698 218.113 137.102Z" stroke="#1E81D9" stroke-width="0.585896"/>
<path d="M13.817 151.57C14.2964 152.31 15.1623 152.872 15.9308 153.259C15.0891 153.278 14.0918 153.421 13.3355 153.906C12.4796 154.455 11.7193 155.584 11.1858 156.527C11.0746 156.724 10.9718 156.916 10.8788 157.095C10.8719 156.896 10.8606 156.683 10.843 156.462C10.7574 155.385 10.5197 154.038 9.86655 153.171C9.39563 152.546 8.61455 152.051 7.88934 151.69C8.69886 151.679 9.61982 151.547 10.3123 151.093C10.7293 150.819 11.1228 150.391 11.4738 149.922C11.8275 149.449 12.151 148.919 12.4243 148.424C12.5764 148.149 12.7136 147.883 12.8326 147.644C12.8531 147.882 12.8798 148.146 12.9145 148.421C12.9819 148.957 13.0799 149.544 13.2227 150.093C13.3646 150.639 13.5554 151.166 13.817 151.57Z" stroke="#1E81D9" stroke-width="0.585896"/>
<path d="M53.8461 6.85736C54.3255 7.59746 55.1914 8.15891 55.9599 8.54623C55.1182 8.56527 54.1209 8.70781 53.3645 9.19302C52.5086 9.74211 51.7483 10.8709 51.2149 11.8146C51.1036 12.0114 51.0009 12.2026 50.9079 12.3823C50.901 12.1834 50.8896 11.9703 50.872 11.7489C50.7865 10.6718 50.5488 9.32465 49.8956 8.45812C49.4247 7.8334 48.6436 7.33816 47.9184 6.97688C48.7279 6.96622 49.6489 6.83379 50.3413 6.37989C50.7584 6.10651 51.1518 5.67774 51.5029 5.20882C51.8565 4.73642 52.1801 4.20562 52.4533 3.71113C52.6054 3.43583 52.7427 3.1704 52.8616 2.93065C52.8822 3.16954 52.9089 3.43267 52.9436 3.70823C53.0109 4.24387 53.1089 4.83107 53.2518 5.38055C53.3937 5.92625 53.5845 6.45355 53.8461 6.85736Z" stroke="#1E81D9" stroke-width="0.585896"/>
<path d="M9.21887 43.7246C9.69829 44.4646 10.5642 45.0261 11.3327 45.4134C10.491 45.4325 9.49366 45.575 8.73732 46.0602C7.88143 46.6093 7.12113 47.7381 6.58767 48.6818C6.47644 48.8786 6.3737 49.0698 6.28066 49.2495C6.27376 49.0505 6.26241 48.8375 6.24482 48.616C6.15927 47.539 5.9216 46.1918 5.2684 45.3253C4.79748 44.7006 4.01641 44.2053 3.2912 43.8441C4.10071 43.8334 5.02167 43.701 5.71411 43.2471C6.13117 42.9737 6.52461 42.5449 6.87567 42.076C7.22933 41.6036 7.55289 41.0728 7.82612 40.5783C7.97823 40.303 8.1155 40.0376 8.23442 39.7978C8.25498 40.0367 8.2817 40.2999 8.31636 40.5754C8.38375 41.1111 8.48174 41.6983 8.6246 42.2477C8.76648 42.7934 8.95728 43.3207 9.21887 43.7246Z" stroke="#1E81D9" stroke-width="0.585896"/>
<path d="M117.207 192.394C117.687 193.135 118.552 193.696 119.321 194.083C118.479 194.102 117.482 194.245 116.726 194.73C115.87 195.279 115.109 196.408 114.576 197.352C114.465 197.548 114.362 197.74 114.269 197.919C114.262 197.72 114.251 197.507 114.233 197.286C114.148 196.209 113.91 194.862 113.257 193.995C112.786 193.371 112.005 192.875 111.279 192.514C112.089 192.503 113.01 192.371 113.702 191.917C114.119 191.644 114.513 191.215 114.864 190.746C115.218 190.274 115.541 189.743 115.814 189.248C115.967 188.973 116.104 188.708 116.223 188.468C116.243 188.707 116.27 188.97 116.305 189.245C116.372 189.781 116.47 190.368 116.613 190.918C116.755 191.463 116.946 191.991 117.207 192.394Z" stroke="#1E81D9" stroke-width="0.585896"/>
<mask id="path-12-inside-1_316_972" fill="white">
<path fill-rule="evenodd" clip-rule="evenodd" d="M43.7452 159.501C44.0769 157.901 43.6868 156.244 42.7596 154.899C36.6037 145.964 32.9997 135.136 32.9997 123.466C32.9997 92.8318 57.8334 67.998 88.4674 67.998C119.101 67.998 143.935 92.8318 143.935 123.466C143.935 154.1 119.101 178.933 88.4674 178.933C83.9106 178.933 79.4823 178.384 75.2449 177.348C74.1565 177.082 73.0141 177.101 71.9502 177.453L46.9727 185.707C42.8406 187.073 38.7796 183.453 39.6631 179.192L43.7452 159.501Z"/>
</mask>
<path fill-rule="evenodd" clip-rule="evenodd" d="M43.7452 159.501C44.0769 157.901 43.6868 156.244 42.7596 154.899C36.6037 145.964 32.9997 135.136 32.9997 123.466C32.9997 92.8318 57.8334 67.998 88.4674 67.998C119.101 67.998 143.935 92.8318 143.935 123.466C143.935 154.1 119.101 178.933 88.4674 178.933C83.9106 178.933 79.4823 178.384 75.2449 177.348C74.1565 177.082 73.0141 177.101 71.9502 177.453L46.9727 185.707C42.8406 187.073 38.7796 183.453 39.6631 179.192L43.7452 159.501Z" fill="#0D2544"/>
<path d="M75.2449 177.348L74.6693 179.701L75.2449 177.348ZM71.9502 177.453L72.7105 179.753L71.9502 177.453ZM46.9727 185.707L47.733 188.008L46.9727 185.707ZM39.6631 179.192L42.0355 179.684L39.6631 179.192ZM42.7596 154.899L44.7547 153.524L42.7596 154.899ZM43.7452 159.501L46.1177 159.993L43.7452 159.501ZM35.4225 123.466C35.4225 134.629 38.8685 144.981 44.7547 153.524L40.7644 156.273C34.339 146.948 30.5768 135.642 30.5768 123.466H35.4225ZM88.4674 70.4209C59.1715 70.4209 35.4225 94.1699 35.4225 123.466H30.5768C30.5768 91.4937 56.4953 65.5752 88.4674 65.5752V70.4209ZM141.512 123.466C141.512 94.1699 117.763 70.4209 88.4674 70.4209V65.5752C120.439 65.5752 146.358 91.4937 146.358 123.466H141.512ZM88.4674 176.511C117.763 176.511 141.512 152.762 141.512 123.466H146.358C146.358 155.438 120.439 181.356 88.4674 181.356V176.511ZM75.8204 174.994C79.8709 175.985 84.1061 176.511 88.4674 176.511V181.356C83.7152 181.356 79.0936 180.783 74.6693 179.701L75.8204 174.994ZM46.2125 183.407L71.19 175.152L72.7105 179.753L47.733 188.008L46.2125 183.407ZM46.1177 159.993L42.0355 179.684L37.2906 178.7L41.3728 159.009L46.1177 159.993ZM74.6693 179.701C73.9838 179.534 73.3067 179.556 72.7105 179.753L71.19 175.152C72.7215 174.646 74.3291 174.629 75.8204 174.994L74.6693 179.701ZM47.733 188.008C41.8299 189.959 36.0286 184.788 37.2906 178.7L42.0355 179.684C41.5307 182.119 43.8512 184.187 46.2125 183.407L47.733 188.008ZM44.7547 153.524C46.0227 155.364 46.5955 157.688 46.1177 159.993L41.3728 159.009C41.5584 158.114 41.3508 157.125 40.7644 156.273L44.7547 153.524Z" fill="black" mask="url(#path-12-inside-1_316_972)"/>
<mask id="path-14-inside-2_316_972" fill="white">
<path fill-rule="evenodd" clip-rule="evenodd" d="M175.777 136.057C175.445 134.457 175.833 132.799 176.771 131.461C184.397 120.58 188.872 107.329 188.872 93.0332C188.872 56.0118 158.86 26 121.839 26C84.8177 26 54.8059 56.0118 54.8059 93.0332C54.8059 130.055 84.8177 160.066 121.839 160.066C127.47 160.066 132.939 159.372 138.165 158.064C139.252 157.792 140.394 157.813 141.458 158.165L173.924 168.894C178.056 170.26 182.117 166.64 181.234 162.379L175.777 136.057Z"/>
</mask>
<path fill-rule="evenodd" clip-rule="evenodd" d="M175.777 136.057C175.445 134.457 175.833 132.799 176.771 131.461C184.397 120.58 188.872 107.329 188.872 93.0332C188.872 56.0118 158.86 26 121.839 26C84.8177 26 54.8059 56.0118 54.8059 93.0332C54.8059 130.055 84.8177 160.066 121.839 160.066C127.47 160.066 132.939 159.372 138.165 158.064C139.252 157.792 140.394 157.813 141.458 158.165L173.924 168.894C178.056 170.26 182.117 166.64 181.234 162.379L175.777 136.057Z" fill="#1064B9"/>
<path d="M138.165 158.064L137.576 155.714L138.165 158.064ZM141.458 158.165L142.218 155.864L141.458 158.165ZM173.924 168.894L173.164 171.195L173.924 168.894ZM181.234 162.379L183.606 161.887L181.234 162.379ZM175.777 136.057L178.149 135.565L175.777 136.057ZM186.449 93.0332C186.449 106.816 182.137 119.584 174.787 130.071L178.755 132.852C186.657 121.576 191.295 107.843 191.295 93.0332H186.449ZM121.839 28.4229C157.522 28.4229 186.449 57.3499 186.449 93.0332H191.295C191.295 54.6736 160.199 23.5771 121.839 23.5771V28.4229ZM57.2288 93.0332C57.2288 57.3499 86.1558 28.4229 121.839 28.4229V23.5771C83.4796 23.5771 52.383 54.6736 52.383 93.0332H57.2288ZM121.839 157.643C86.1558 157.643 57.2288 128.716 57.2288 93.0332H52.383C52.383 131.393 83.4796 162.489 121.839 162.489V157.643ZM137.576 155.714C132.542 156.974 127.27 157.643 121.839 157.643V162.489C127.67 162.489 133.336 161.77 138.753 160.415L137.576 155.714ZM174.684 166.594L142.218 155.864L140.698 160.465L173.164 171.195L174.684 166.594ZM173.404 136.549L178.861 162.871L183.606 161.887L178.149 135.565L173.404 136.549ZM138.753 160.415C139.426 160.246 140.1 160.268 140.698 160.465L142.218 155.864C140.689 155.359 139.077 155.338 137.576 155.714L138.753 160.415ZM173.164 171.195C179.067 173.146 184.868 167.975 183.606 161.887L178.861 162.871C179.366 165.306 177.045 167.374 174.684 166.594L173.164 171.195ZM174.787 130.071C173.494 131.915 172.927 134.247 173.404 136.549L178.149 135.565C177.963 134.667 178.172 133.684 178.755 132.852L174.787 130.071Z" fill="black" mask="url(#path-14-inside-2_316_972)"/>
<circle cx="121.839" cy="93.033" r="50.8806" fill="#4491DE" stroke="black" stroke-width="3.23051"/>
<circle cx="121.839" cy="93.0328" r="37.9585" fill="#93C0EE" stroke="black" stroke-width="3.23051"/>
<path d="M122.48 109.185C121.963 109.185 121.54 109.011 121.212 108.663C120.883 108.338 120.719 107.932 120.719 107.444V104.345L121.529 105.111C119.909 105.065 118.465 104.856 117.197 104.484C115.953 104.113 114.896 103.684 114.027 103.196C113.605 102.941 113.311 102.627 113.147 102.256C112.982 101.861 112.924 101.467 112.971 101.072C113.018 100.678 113.159 100.341 113.393 100.062C113.652 99.7607 113.969 99.575 114.344 99.5054C114.72 99.4125 115.154 99.5054 115.647 99.7839C116.305 100.155 117.162 100.515 118.218 100.863C119.298 101.188 120.59 101.351 122.092 101.351C123.266 101.351 124.217 101.212 124.945 100.933C125.673 100.654 126.201 100.271 126.53 99.7839C126.882 99.2965 127.058 98.7394 127.058 98.1126C127.058 97.6019 126.94 97.1609 126.706 96.7895C126.471 96.3949 126.084 96.0583 125.544 95.7798C125.003 95.478 124.276 95.2343 123.36 95.0486L119.627 94.2477C117.49 93.7835 115.894 93.0059 114.837 91.9149C113.781 90.8239 113.252 89.3963 113.252 87.6321C113.252 86.2626 113.593 85.0439 114.274 83.9762C114.955 82.8852 115.906 82.0147 117.126 81.3647C118.347 80.7148 119.78 80.3318 121.423 80.2157L120.719 80.738V77.8132C120.719 77.3257 120.883 76.9195 121.212 76.5946C121.54 76.2464 121.963 76.0723 122.48 76.0723C122.973 76.0723 123.383 76.2464 123.712 76.5946C124.064 76.9195 124.24 77.3257 124.24 77.8132V80.738L123.501 80.1809C124.51 80.2041 125.614 80.4014 126.811 80.7728C128.032 81.1442 129.077 81.6665 129.946 82.3397C130.298 82.6182 130.533 82.9432 130.65 83.3146C130.767 83.6628 130.779 84.011 130.685 84.3592C130.591 84.6841 130.415 84.9627 130.157 85.1948C129.899 85.4269 129.57 85.5662 129.171 85.6126C128.795 85.6359 128.361 85.5082 127.868 85.2296C127.187 84.835 126.424 84.5217 125.579 84.2895C124.733 84.0342 123.724 83.9065 122.55 83.9065C121.047 83.9065 119.862 84.2431 118.993 84.9163C118.148 85.5662 117.725 86.4251 117.725 87.4929C117.725 88.2821 117.983 88.9204 118.5 89.4079C119.016 89.8722 119.897 90.2436 121.141 90.5221L124.98 91.3578C127.234 91.8452 128.889 92.6228 129.946 93.6906C131.002 94.7352 131.531 96.1163 131.531 97.8341C131.531 99.1804 131.19 100.376 130.509 101.42C129.828 102.442 128.889 103.266 127.692 103.893C126.518 104.496 125.144 104.879 123.571 105.042L124.24 104.31V107.444C124.24 107.932 124.076 108.338 123.747 108.663C123.419 109.011 122.996 109.185 122.48 109.185Z" fill="black"/>
</svg>
